<svg xmlns="http://www.w3.org/2000/svg" viewBox="0 0 1600 1062" width="1600" height="1062"><rect width="1600" height="1120" fill="#0f1117"/><line x1="0" y1="0" x2="0" y2="1120" stroke="#ffffff" stroke-opacity="0.015"/><line x1="40" y1="0" x2="40" y2="1120" stroke="#ffffff" stroke-opacity="0.015"/><line x1="80" y1="0" x2="80" y2="1120" stroke="#ffffff" stroke-opacity="0.015"/><line x1="120" y1="0" x2="120" y2="1120" stroke="#ffffff" stroke-opacity="0.015"/><line x1="160" y1="0" x2="160" y2="1120" stroke="#ffffff" stroke-opacity="0.015"/><line x1="200" y1="0" x2="200" y2="1120" stroke="#ffffff" stroke-opacity="0.015"/><line x1="240" y1="0" x2="240" y2="1120" stroke="#ffffff" stroke-opacity="0.015"/><line x1="280" y1="0" x2="280" y2="1120" stroke="#ffffff" stroke-opacity="0.015"/><line x1="320" y1="0" x2="320" y2="1120" stroke="#ffffff" stroke-opacity="0.015"/><line x1="360" y1="0" x2="360" y2="1120" stroke="#ffffff" stroke-opacity="0.015"/><line x1="400" y1="0" x2="400" y2="1120" stroke="#ffffff" stroke-opacity="0.015"/><line x1="440" y1="0" x2="440" y2="1120" stroke="#ffffff" stroke-opacity="0.015"/><line x1="480" y1="0" x2="480" y2="1120" stroke="#ffffff" stroke-opacity="0.015"/><line x1="520" y1="0" x2="520" y2="1120" stroke="#ffffff" stroke-opacity="0.015"/><line x1="560" y1="0" x2="560" y2="1120" stroke="#ffffff" stroke-opacity="0.015"/><line x1="600" y1="0" x2="600" y2="1120" stroke="#ffffff" stroke-opacity="0.015"/><line x1="640" y1="0" x2="640" y2="1120" stroke="#ffffff" stroke-opacity="0.015"/><line x1="680" y1="0" x2="680" y2="1120" stroke="#ffffff" stroke-opacity="0.015"/><line x1="720" y1="0" x2="720" y2="1120" stroke="#ffffff" stroke-opacity="0.015"/><line x1="760" y1="0" x2="760" y2="1120" stroke="#ffffff" stroke-opacity="0.015"/><line x1="800" y1="0" x2="800" y2="1120" stroke="#ffffff" stroke-opacity="0.015"/><line x1="840" y1="0" x2="840" y2="1120" stroke="#ffffff" stroke-opacity="0.015"/><line x1="880" y1="0" x2="880" y2="1120" stroke="#ffffff" stroke-opacity="0.015"/><line x1="920" y1="0" x2="920" y2="1120" stroke="#ffffff" stroke-opacity="0.015"/><line x1="960" y1="0" x2="960" y2="1120" stroke="#ffffff" stroke-opacity="0.015"/><line x1="1000" y1="0" x2="1000" y2="1120" stroke="#ffffff" stroke-opacity="0.015"/><line x1="1040" y1="0" x2="1040" y2="1120" stroke="#ffffff" stroke-opacity="0.015"/><line x1="1080" y1="0" x2="1080" y2="1120" stroke="#ffffff" stroke-opacity="0.015"/><line x1="1120" y1="0" x2="1120" y2="1120" stroke="#ffffff" stroke-opacity="0.015"/><line x1="1160" y1="0" x2="1160" y2="1120" stroke="#ffffff" stroke-opacity="0.015"/><line x1="1200" y1="0" x2="1200" y2="1120" stroke="#ffffff" stroke-opacity="0.015"/><line x1="1240" y1="0" x2="1240" y2="1120" stroke="#ffffff" stroke-opacity="0.015"/><line x1="1280" y1="0" x2="1280" y2="1120" stroke="#ffffff" stroke-opacity="0.015"/><line x1="1320" y1="0" x2="1320" y2="1120" stroke="#ffffff" stroke-opacity="0.015"/><line x1="1360" y1="0" x2="1360" y2="1120" stroke="#ffffff" stroke-opacity="0.015"/><line x1="1400" y1="0" x2="1400" y2="1120" stroke="#ffffff" stroke-opacity="0.015"/><line x1="1440" y1="0" x2="1440" y2="1120" stroke="#ffffff" stroke-opacity="0.015"/><line x1="1480" y1="0" x2="1480" y2="1120" stroke="#ffffff" stroke-opacity="0.015"/><line x1="1520" y1="0" x2="1520" y2="1120" stroke="#ffffff" stroke-opacity="0.015"/><line x1="1560" y1="0" x2="1560" y2="1120" stroke="#ffffff" stroke-opacity="0.015"/><line x1="0" y1="0" x2="1600" y2="0" stroke="#ffffff" stroke-opacity="0.015"/><line x1="0" y1="40" x2="1600" y2="40" stroke="#ffffff" stroke-opacity="0.015"/><line x1="0" y1="80" x2="1600" y2="80" stroke="#ffffff" stroke-opacity="0.015"/><line x1="0" y1="120" x2="1600" y2="120" stroke="#ffffff" stroke-opacity="0.015"/><line x1="0" y1="160" x2="1600" y2="160" stroke="#ffffff" stroke-opacity="0.015"/><line x1="0" y1="200" x2="1600" y2="200" stroke="#ffffff" stroke-opacity="0.015"/><line x1="0" y1="240" x2="1600" y2="240" stroke="#ffffff" stroke-opacity="0.015"/><line x1="0" y1="280" x2="1600" y2="280" stroke="#ffffff" stroke-opacity="0.015"/><line x1="0" y1="320" x2="1600" y2="320" stroke="#ffffff" stroke-opacity="0.015"/><line x1="0" y1="360" x2="1600" y2="360" stroke="#ffffff" stroke-opacity="0.015"/><line x1="0" y1="400" x2="1600" y2="400" stroke="#ffffff" stroke-opacity="0.015"/><line x1="0" y1="440" x2="1600" y2="440" stroke="#ffffff" stroke-opacity="0.015"/><line x1="0" y1="480" x2="1600" y2="480" stroke="#ffffff" stroke-opacity="0.015"/><line x1="0" y1="520" x2="1600" y2="520" stroke="#ffffff" stroke-opacity="0.015"/><line x1="0" y1="560" x2="1600" y2="560" stroke="#ffffff" stroke-opacity="0.015"/><line x1="0" y1="600" x2="1600" y2="600" stroke="#ffffff" stroke-opacity="0.015"/><line x1="0" y1="640" x2="1600" y2="640" stroke="#ffffff" stroke-opacity="0.015"/><line x1="0" y1="680" x2="1600" y2="680" stroke="#ffffff" stroke-opacity="0.015"/><line x1="0" y1="720" x2="1600" y2="720" stroke="#ffffff" stroke-opacity="0.015"/><line x1="0" y1="760" x2="1600" y2="760" stroke="#ffffff" stroke-opacity="0.015"/><line x1="0" y1="800" x2="1600" y2="800" stroke="#ffffff" stroke-opacity="0.015"/><line x1="0" y1="840" x2="1600" y2="840" stroke="#ffffff" stroke-opacity="0.015"/><line x1="0" y1="880" x2="1600" y2="880" stroke="#ffffff" stroke-opacity="0.015"/><line x1="0" y1="920" x2="1600" y2="920" stroke="#ffffff" stroke-opacity="0.015"/><line x1="0" y1="960" x2="1600" y2="960" stroke="#ffffff" stroke-opacity="0.015"/><line x1="0" y1="1000" x2="1600" y2="1000" stroke="#ffffff" stroke-opacity="0.015"/><line x1="0" y1="1040" x2="1600" y2="1040" stroke="#ffffff" stroke-opacity="0.015"/><line x1="0" y1="1080" x2="1600" y2="1080" stroke="#ffffff" stroke-opacity="0.015"/><circle cx="1600" cy="0" r="420" fill="#c9a84c" fill-opacity="0.05"/><circle cx="0" cy="1120" r="360" fill="#c9a84c" fill-opacity="0.035"/><polygon points="124.0,66.0 163.8,89.0 163.8,135.0 124.0,158.0 84.2,135.0 84.2,89.0" fill="#c9a84c"/><polygon points="124.0,78.0 153.5,95.0 153.5,129.0 124.0,146.0 94.5,129.0 94.5,95.0" fill="none" stroke="#0f1117" stroke-opacity="0.35" stroke-width="2"/><path d="M 108.36 112.92 l 10.12 11.04 l 19.32 -21.16" fill="none" stroke="#0f1117" stroke-width="7.8" stroke-linecap="round" stroke-linejoin="round"/><text x="204" y="104" font-family="Georgia, serif" font-size="56" font-weight="700" fill="#e8e6e0">Procure<tspan fill="#c9a84c">AI</tspan></text><text x="207" y="140" font-family="Helvetica, Arial, sans-serif" font-size="19" letter-spacing="4" fill="#8b93a7">AGENTIC RAG PROCUREMENT ASSISTANT</text><text x="1530" y="94" text-anchor="end" font-family="Helvetica, Arial, sans-serif" font-size="16" letter-spacing="1" fill="#8b93a7">System Architecture</text><text x="1530" y="120" text-anchor="end" font-family="Helvetica, Arial, sans-serif" font-size="16" letter-spacing="1" fill="#8b93a7">LangChain ReAct · RAG · RBAC</text><line x1="70" y1="168" x2="1530" y2="168" stroke="#c9a84c" stroke-opacity="0.5" stroke-width="2"/><rect x="70" y="210" width="1460" height="120" rx="20" fill="#161a23" stroke="#2a3142" stroke-width="1.5"/><rect x="70" y="210" width="170" height="120" rx="20" fill="#c9a84c"/><rect x="218" y="210" width="22" height="120" fill="#c9a84c"/><text x="155" y="270" font-family="Helvetica, Arial, sans-serif" font-size="20" font-weight="800" letter-spacing="3" fill="#0f1117" text-anchor="middle" dominant-baseline="middle">FRONTEND</text><rect x="270.0" y="235.0" width="240" height="70" rx="14" fill="#1b2030" stroke="#2a3142" stroke-width="1.5"/><g transform="translate(292.00,253.90) scale(1.3417)"><path d="M14.23 12.004a2.236 2.236 0 0 1-2.235 2.236 2.236 2.236 0 0 1-2.236-2.236 2.236 2.236 0 0 1 2.235-2.236 2.236 2.236 0 0 1 2.236 2.236zm2.648-10.69c-1.346 0-3.107.96-4.888 2.622-1.78-1.653-3.542-2.602-4.887-2.602-.41 0-.783.093-1.106.278-1.375.793-1.683 3.264-.973 6.365C1.98 8.917 0 10.42 0 12.004c0 1.59 1.99 3.097 5.043 4.03-.704 3.113-.39 5.588.988 6.38.32.187.69.275 1.102.275 1.345 0 3.107-.96 4.888-2.624 1.78 1.654 3.542 2.603 4.887 2.603.41 0 .783-.09 1.106-.275 1.374-.792 1.683-3.263.973-6.365C22.02 15.096 24 13.59 24 12.004c0-1.59-1.99-3.097-5.043-4.032.704-3.11.39-5.587-.988-6.38-.318-.184-.688-.277-1.092-.278zm-.005 1.09v.006c.225 0 .406.044.558.127.666.382.955 1.835.73 3.704-.054.46-.142.945-.25 1.44-.96-.236-2.006-.417-3.107-.534-.66-.905-1.345-1.727-2.035-2.447 1.592-1.48 3.087-2.292 4.105-2.295zm-9.77.02c1.012 0 2.514.808 4.11 2.28-.686.72-1.37 1.537-2.02 2.442-1.107.117-2.154.298-3.113.538-.112-.49-.195-.964-.254-1.42-.23-1.868.054-3.32.714-3.707.19-.09.4-.127.563-.132zm4.882 3.05c.455.468.91.992 1.36 1.564-.44-.02-.89-.034-1.345-.034-.46 0-.915.01-1.36.034.44-.572.895-1.096 1.345-1.565zM12 8.1c.74 0 1.477.034 2.202.093.406.582.802 1.203 1.183 1.86.372.64.71 1.29 1.018 1.946-.308.655-.646 1.31-1.013 1.95-.38.66-.773 1.288-1.18 1.87-.728.063-1.466.098-2.21.098-.74 0-1.477-.035-2.202-.093-.406-.582-.802-1.204-1.183-1.86-.372-.64-.71-1.29-1.018-1.946.303-.657.646-1.313 1.013-1.954.38-.66.773-1.286 1.18-1.868.728-.064 1.466-.098 2.21-.098zm-3.635.254c-.24.377-.48.763-.704 1.16-.225.39-.435.782-.635 1.174-.265-.656-.49-1.31-.676-1.947.64-.15 1.315-.283 2.015-.386zm7.26 0c.695.103 1.365.23 2.006.387-.18.632-.405 1.282-.66 1.933-.2-.39-.41-.783-.64-1.174-.225-.392-.465-.774-.705-1.146zm3.063.675c.484.15.944.317 1.375.498 1.732.74 2.852 1.708 2.852 2.476-.005.768-1.125 1.74-2.857 2.475-.42.18-.88.342-1.355.493-.28-.958-.646-1.956-1.1-2.98.45-1.017.81-2.01 1.085-2.964zm-13.395.004c.278.96.645 1.957 1.1 2.98-.45 1.017-.812 2.01-1.086 2.964-.484-.15-.944-.318-1.37-.5-1.732-.737-2.852-1.706-2.852-2.474 0-.768 1.12-1.742 2.852-2.476.42-.18.88-.342 1.356-.494zm11.678 4.28c.265.657.49 1.312.676 1.948-.64.157-1.316.29-2.016.39.24-.375.48-.762.705-1.158.225-.39.435-.788.636-1.18zm-9.945.02c.2.392.41.783.64 1.175.23.39.465.772.705 1.143-.695-.102-1.365-.23-2.006-.386.18-.63.406-1.282.66-1.933zM17.92 16.32c.112.493.2.968.254 1.423.23 1.868-.054 3.32-.714 3.708-.147.09-.338.128-.563.128-1.012 0-2.514-.807-4.11-2.28.686-.72 1.37-1.536 2.02-2.44 1.107-.118 2.154-.3 3.113-.54zm-11.83.01c.96.234 2.006.415 3.107.532.66.905 1.345 1.727 2.035 2.446-1.595 1.483-3.092 2.295-4.11 2.295-.22-.005-.406-.05-.553-.132-.666-.38-.955-1.834-.73-3.703.054-.46.142-.944.25-1.438zm4.56.64c.44.02.89.034 1.345.034.46 0 .915-.01 1.36-.034-.44.572-.895 1.095-1.345 1.565-.455-.47-.91-.993-1.36-1.565z" fill="#61DAFB"/></g><text x="340.2" y="270.0" font-family="Georgia, serif" font-size="22" font-weight="700" fill="#e8e6e0" dominant-baseline="middle">React 18</text><rect x="600.0" y="235.0" width="240" height="70" rx="14" fill="#1b2030" stroke="#2a3142" stroke-width="1.5"/><g transform="translate(622.00,253.90) scale(1.3417)"><path d="M1.125 0C.502 0 0 .502 0 1.125v21.75C0 23.498.502 24 1.125 24h21.75c.623 0 1.125-.502 1.125-1.125V1.125C24 .502 23.498 0 22.875 0zm17.363 9.75c.612 0 1.154.037 1.627.111a6.38 6.38 0 0 1 1.306.34v2.458a3.95 3.95 0 0 0-.643-.361 5.093 5.093 0 0 0-.717-.26 5.453 5.453 0 0 0-1.426-.2c-.3 0-.573.028-.819.086a2.1 2.1 0 0 0-.623.242c-.17.104-.3.229-.393.374a.888.888 0 0 0-.14.49c0 .196.053.373.156.529.104.156.252.304.443.444s.423.276.696.41c.273.135.582.274.926.416.47.197.892.407 1.266.628.374.222.695.473.963.753.268.279.472.598.614.957.142.359.214.776.214 1.253 0 .657-.125 1.21-.373 1.656a3.033 3.033 0 0 1-1.012 1.085 4.38 4.38 0 0 1-1.487.596c-.566.12-1.163.18-1.79.18a9.916 9.916 0 0 1-1.84-.164 5.544 5.544 0 0 1-1.512-.493v-2.63a5.033 5.033 0 0 0 3.237 1.2c.333 0 .624-.03.872-.09.249-.06.456-.144.623-.25.166-.108.29-.234.373-.38a1.023 1.023 0 0 0-.074-1.089 2.12 2.12 0 0 0-.537-.5 5.597 5.597 0 0 0-.807-.444 27.72 27.72 0 0 0-1.007-.436c-.918-.383-1.602-.852-2.053-1.405-.45-.553-.676-1.222-.676-2.005 0-.614.123-1.141.369-1.582.246-.441.58-.804 1.004-1.089a4.494 4.494 0 0 1 1.47-.629 7.536 7.536 0 0 1 1.77-.201zm-15.113.188h9.563v2.166H9.506v9.646H6.789v-9.646H3.375z" fill="#3178C6"/></g><text x="670.2" y="270.0" font-family="Georgia, serif" font-size="22" font-weight="700" fill="#e8e6e0" dominant-baseline="middle">TypeScript</text><rect x="930.0" y="235.0" width="240" height="70" rx="14" fill="#1b2030" stroke="#2a3142" stroke-width="1.5"/><g transform="translate(952.00,253.90) scale(1.3417)"><path d="M13.056 23.238a.57.57 0 0 1-1.02-.355v-5.202c0-.63-.512-1.143-1.144-1.143H5.148a.57.57 0 0 1-.464-.903l3.777-5.29c.54-.753 0-1.804-.93-1.804H.57a.574.574 0 0 1-.543-.746.6.6 0 0 1 .08-.157L5.008.78a.57.57 0 0 1 .467-.24h14.589a.57.57 0 0 1 .466.903l-3.778 5.29c-.54.755 0 1.806.93 1.806h5.745c.238 0 .424.138.513.322a.56.56 0 0 1-.063.603z" fill="#9135FF"/></g><text x="1000.2" y="270.0" font-family="Georgia, serif" font-size="22" font-weight="700" fill="#e8e6e0" dominant-baseline="middle">Vite</text><rect x="1260.0" y="235.0" width="240" height="70" rx="14" fill="#1b2030" stroke="#2a3142" stroke-width="1.5"/><g transform="translate(1282.00,253.90) scale(1.3417)"><path d="M12.001,4.8c-3.2,0-5.2,1.6-6,4.8c1.2-1.6,2.6-2.2,4.2-1.8c0.913,0.228,1.565,0.89,2.288,1.624 C13.666,10.618,15.027,12,18.001,12c3.2,0,5.2-1.6,6-4.8c-1.2,1.6-2.6,2.2-4.2,1.8c-0.913-0.228-1.565-0.89-2.288-1.624 C16.337,6.182,14.976,4.8,12.001,4.8z M6.001,12c-3.2,0-5.2,1.6-6,4.8c1.2-1.6,2.6-2.2,4.2-1.8c0.913,0.228,1.565,0.89,2.288,1.624 c1.177,1.194,2.538,2.576,5.512,2.576c3.2,0,5.2-1.6,6-4.8c-1.2,1.6-2.6,2.2-4.2,1.8c-0.913-0.228-1.565-0.89-2.288-1.624 C10.337,13.382,8.976,12,6.001,12z" fill="#06B6D4"/></g><text x="1330.2" y="270.0" font-family="Georgia, serif" font-size="22" font-weight="700" fill="#e8e6e0" dominant-baseline="middle">Tailwind v4</text><path d="M 800.0 330 l 0 24" stroke="#c9a84c" stroke-width="3"/><path d="M 791.0 348 L 800.0 360 L 809.0 348 Z" fill="#c9a84c"/><rect x="70" y="384" width="1460" height="120" rx="20" fill="#161a23" stroke="#2a3142" stroke-width="1.5"/><rect x="70" y="384" width="170" height="120" rx="20" fill="#c9a84c"/><rect x="218" y="384" width="22" height="120" fill="#c9a84c"/><text x="155" y="444" font-family="Helvetica, Arial, sans-serif" font-size="20" font-weight="800" letter-spacing="3" fill="#0f1117" text-anchor="middle" dominant-baseline="middle">API LAYER</text><rect x="270.0" y="409.0" width="240" height="70" rx="14" fill="#1b2030" stroke="#2a3142" stroke-width="1.5"/><g transform="translate(292.00,427.90) scale(1.3417)"><path d="M12 .0387C5.3729.0384.0003 5.3931 0 11.9988c-.001 6.6066 5.372 11.9628 12 11.9625 6.628.0003 12.001-5.3559 12-11.9625-.0003-6.6057-5.3729-11.9604-12-11.96m-.829 5.4153h7.55l-7.5805 5.3284h5.1828L5.279 18.5436q2.9466-6.5444 5.892-13.0896" fill="#0aa99a"/></g><text x="340.2" y="444.0" font-family="Georgia, serif" font-size="22" font-weight="700" fill="#e8e6e0" dominant-baseline="middle">FastAPI</text><rect x="600.0" y="409.0" width="240" height="70" rx="14" fill="#1b2030" stroke="#2a3142" stroke-width="1.5"/><g transform="translate(622.00,427.90) scale(1.3417)"><path d="M14.25.18l.9.2.73.26.59.3.45.32.34.34.25.34.16.33.1.3.04.26.02.2-.01.13V8.5l-.05.63-.13.55-.21.46-.26.38-.3.31-.33.25-.35.19-.35.14-.33.1-.3.07-.26.04-.21.02H8.77l-.69.05-.59.14-.5.22-.41.27-.33.32-.27.35-.2.36-.15.37-.1.35-.07.32-.04.27-.02.21v3.06H3.17l-.21-.03-.28-.07-.32-.12-.35-.18-.36-.26-.36-.36-.35-.46-.32-.59-.28-.73-.21-.88-.14-1.05-.05-1.23.06-1.22.16-1.04.24-.87.32-.71.36-.57.4-.44.42-.33.42-.24.4-.16.36-.1.32-.05.24-.01h.16l.06.01h8.16v-.83H6.18l-.01-2.75-.02-.37.05-.34.11-.31.17-.28.25-.26.31-.23.38-.2.44-.18.51-.15.58-.12.64-.1.71-.06.77-.04.84-.02 1.27.05zm-6.3 1.98l-.23.33-.08.41.08.41.23.34.33.22.41.09.41-.09.33-.22.23-.34.08-.41-.08-.41-.23-.33-.33-.22-.41-.09-.41.09zm13.09 3.95l.28.06.32.12.35.18.36.27.36.35.35.47.32.59.28.73.21.88.14 1.04.05 1.23-.06 1.23-.16 1.04-.24.86-.32.71-.36.57-.4.45-.42.33-.42.24-.4.16-.36.09-.32.05-.24.02-.16-.01h-8.22v.82h5.84l.01 2.76.02.36-.05.34-.11.31-.17.29-.25.25-.31.24-.38.2-.44.17-.51.15-.58.13-.64.09-.71.07-.77.04-.84.01-1.27-.04-1.07-.14-.9-.2-.73-.25-.59-.3-.45-.33-.34-.34-.25-.34-.16-.33-.1-.3-.04-.25-.02-.2.01-.13v-5.34l.05-.64.13-.54.21-.46.26-.38.3-.32.33-.24.35-.2.35-.14.33-.1.3-.06.26-.04.21-.02.13-.01h5.84l.69-.05.59-.14.5-.21.41-.28.33-.32.27-.35.2-.36.15-.36.1-.35.07-.32.04-.28.02-.21V6.07h2.09l.14.01zm-6.47 14.25l-.23.33-.08.41.08.41.23.33.33.23.41.08.41-.08.33-.23.23-.33.08-.41-.08-.41-.23-.33-.33-.23-.41-.08-.41.08z" fill="#3776AB"/></g><text x="670.2" y="444.0" font-family="Georgia, serif" font-size="22" font-weight="700" fill="#e8e6e0" dominant-baseline="middle">Python</text><rect x="930.0" y="409.0" width="240" height="70" rx="14" fill="#1b2030" stroke="#2a3142" stroke-width="1.5"/><g transform="translate(952.00,427.90) scale(1.3417)"><path d="m23.826 17.316-4.23-5.866-6.847-9.496c-.348-.48-1.151-.48-1.497 0l-6.845 9.494-4.233 5.868a.925.925 0 0 0 .46 1.417l11.078 3.626h.002a.92.92 0 0 0 .572 0h.002l11.077-3.626c.28-.092.5-.31.59-.592a.916.916 0 0 0-.13-.825h.002ZM12.001 4.07l4.44 6.158-4.152-1.36c-.032-.01-.066-.008-.098-.016a.8.8 0 0 0-.096-.016c-.032-.004-.062-.016-.094-.016s-.062.012-.094.016a.74.74 0 0 0-.096.016c-.032.006-.066.006-.096.016L7.59 10.221l-.026.008 4.44-6.158h-.002Zm-6.273 8.7 4.834-1.583.516-.168v9.19L2.41 17.372l3.317-4.6Zm7.197 7.437V11.02l5.35 1.752 3.316 4.598-8.666 2.838Z" fill="#E92063"/></g><text x="1000.2" y="444.0" font-family="Georgia, serif" font-size="22" font-weight="700" fill="#e8e6e0" dominant-baseline="middle">Pydantic v2</text><rect x="1260.0" y="409.0" width="240" height="70" rx="14" fill="#1b2030" stroke="#2a3142" stroke-width="1.5"/><g transform="translate(1282.00,427.90) scale(1.3417)"><path d="M10.2 0v6.456L12 8.928l1.8-2.472V0zm3.6 6.456v3.072l2.904-.96L20.52 3.36l-2.928-2.136zm2.904 2.112l-1.8 2.496 2.928.936 6.144-1.992-1.128-3.432zM17.832 12l-2.928.936 1.8 2.496 6.144 1.992 1.128-3.432zm-1.128 3.432l-2.904-.96v3.072l3.792 5.232 2.928-2.136zM13.8 17.544L12 15.072l-1.8 2.472V24h3.6zm-3.6 0v-3.072l-2.904.96L3.48 20.64l2.928 2.136zm-2.904-2.112l1.8-2.496L6.168 12 .024 13.992l1.128 3.432zM6.168 12l2.928-.936-1.8-2.496-6.144-1.992-1.128 3.432zm1.128-3.432l2.904.96V6.456L6.408 1.224 3.48 3.36Z" fill="#c9a84c"/></g><text x="1330.2" y="444.0" font-family="Georgia, serif" font-size="22" font-weight="700" fill="#e8e6e0" dominant-baseline="middle">JWT · RBAC</text><path d="M 800.0 504 l 0 24" stroke="#c9a84c" stroke-width="3"/><path d="M 791.0 522 L 800.0 534 L 809.0 522 Z" fill="#c9a84c"/><rect x="70" y="558" width="1460" height="130" rx="20" fill="#161a23" stroke="#2a3142" stroke-width="1.5"/><rect x="70" y="558" width="170" height="130" rx="20" fill="#c9a84c"/><rect x="218" y="558" width="22" height="130" fill="#c9a84c"/><text x="155" y="623" font-family="Helvetica, Arial, sans-serif" font-size="20" font-weight="800" letter-spacing="3" fill="#0f1117" text-anchor="middle" dominant-baseline="middle">AI AGENT</text><circle cx="885" cy="623" r="17" fill="#c9a84c"/><text x="885" y="624" font-family="Helvetica,Arial,sans-serif" font-size="26" font-weight="800" fill="#0f1117" text-anchor="middle" dominant-baseline="middle">+</text><rect x="510.0" y="584.0" width="320" height="78" rx="14" fill="#1b2030" stroke="#2a3142" stroke-width="1.5"/><g transform="translate(532.00,605.06) scale(1.4950)"><path d="M13.796 0a6.93 6.93 0 0 0-4.91 2.019L5.451 5.455l3.273 3.27 3.432-3.432a2.284 2.284 0 0 1 3.277 0 2.28 2.28 0 0 1 0 3.275L12 12.001l3.273 3.273 3.433-3.435c2.692-2.692 2.692-7.127 0-9.82A6.92 6.92 0 0 0 13.796 0m-5.07 8.728-3.433 3.434c-2.692 2.693-2.692 7.126 0 9.819A6.92 6.92 0 0 0 10.203 24a6.93 6.93 0 0 0 4.911-2.02l3.432-3.432-3.271-3.272-3.433 3.433a2.284 2.284 0 0 1-3.277 0 2.28 2.28 0 0 1 0-3.276L12 12z" fill="#7FC8FF"/></g><text x="583.9" y="619.0" font-family="Georgia, serif" font-size="22" font-weight="700" fill="#e8e6e0" dominant-baseline="middle">LangChain</text><text x="583.9" y="641.0" font-family="Helvetica, Arial, sans-serif" font-size="13" letter-spacing="1.5" fill="#8b93a7" dominant-baseline="middle">REACT AGENT + 4 TOOLS</text><rect x="940.0" y="584.0" width="320" height="78" rx="14" fill="#1b2030" stroke="#2a3142" stroke-width="1.5"/><g transform="translate(962.00,605.06) scale(1.4950)"><path d="M17.3041 3.541h-3.6718l6.696 16.918H24Zm-10.6082 0L0 20.459h3.7442l1.3693-3.5527h7.0052l1.3693 3.5528h3.7442L10.5363 3.5409Zm-.3712 10.2232 2.2914-5.9456 2.2914 5.9456Z" fill="#e8e6e0"/></g><text x="1013.9" y="619.0" font-family="Georgia, serif" font-size="22" font-weight="700" fill="#e8e6e0" dominant-baseline="middle">Anthropic Claude</text><text x="1013.9" y="641.0" font-family="Helvetica, Arial, sans-serif" font-size="13" letter-spacing="1.5" fill="#8b93a7" dominant-baseline="middle">REASONING LLM</text><path d="M 800.0 688 l 0 24" stroke="#c9a84c" stroke-width="3"/><path d="M 791.0 706 L 800.0 718 L 809.0 706 Z" fill="#c9a84c"/><rect x="70" y="742" width="1460" height="130" rx="20" fill="#161a23" stroke="#2a3142" stroke-width="1.5"/><rect x="70" y="742" width="170" height="130" rx="20" fill="#c9a84c"/><rect x="218" y="742" width="22" height="130" fill="#c9a84c"/><text x="155" y="807" font-family="Helvetica, Arial, sans-serif" font-size="20" font-weight="800" letter-spacing="3" fill="#0f1117" text-anchor="middle" dominant-baseline="middle">DATA · RAG</text><circle cx="885" cy="807" r="17" fill="#c9a84c"/><text x="885" y="808" font-family="Helvetica,Arial,sans-serif" font-size="26" font-weight="800" fill="#0f1117" text-anchor="middle" dominant-baseline="middle">+</text><rect x="510.0" y="768.0" width="320" height="78" rx="14" fill="#1b2030" stroke="#2a3142" stroke-width="1.5"/><circle cx="539.9" cy="807.0" r="7.9" fill="#FF6B6B"/><circle cx="549.0" cy="807.0" r="7.9" fill="#FFD166"/><circle cx="558.0" cy="807.0" r="7.9" fill="#4D96FF"/><text x="583.9" y="803.0" font-family="Georgia, serif" font-size="22" font-weight="700" fill="#e8e6e0" dominant-baseline="middle">ChromaDB</text><text x="583.9" y="825.0" font-family="Helvetica, Arial, sans-serif" font-size="13" letter-spacing="1.5" fill="#8b93a7" dominant-baseline="middle">VECTOR STORE · MULTI-TENANT</text><rect x="940.0" y="768.0" width="320" height="78" rx="14" fill="#1b2030" stroke="#2a3142" stroke-width="1.5"/><g transform="translate(962.00,789.06) scale(1.4950)"><path d="M17.193 9.555c-1.264-5.58-4.252-7.414-4.573-8.115-.28-.394-.53-.954-.735-1.44-.036.495-.055.685-.523 1.184-.723.566-4.438 3.682-4.74 10.02-.282 5.912 4.27 9.435 4.888 9.884l.07.05A73.49 73.49 0 0111.91 24h.481c.114-1.032.284-2.056.51-3.07.417-.296.604-.463.85-.693a11.342 11.342 0 003.639-8.464c.01-.814-.103-1.662-.197-2.218zm-5.336 8.195s0-8.291.275-8.29c.213 0 .49 10.695.49 10.695-.381-.045-.765-1.76-.765-2.405z" fill="#47A248"/></g><text x="1013.9" y="803.0" font-family="Georgia, serif" font-size="22" font-weight="700" fill="#e8e6e0" dominant-baseline="middle">MongoDB Atlas</text><text x="1013.9" y="825.0" font-family="Helvetica, Arial, sans-serif" font-size="13" letter-spacing="1.5" fill="#8b93a7" dominant-baseline="middle">AUDIT LOG</text><rect x="70" y="916" width="1460" height="96" rx="18" fill="#161a23" stroke="#2a3142" stroke-width="1.5" stroke-dasharray="6 6"/><text x="104" y="964" font-family="Helvetica, Arial, sans-serif" font-size="17" font-weight="800" letter-spacing="2" fill="#c9a84c" dominant-baseline="middle">DEVOPS &amp; CI/CD</text><rect x="1190.0" y="932.0" width="240" height="64" rx="14" fill="#1b2030" stroke="#2a3142" stroke-width="1.5"/><g transform="translate(1212.00,949.28) scale(1.2267)"><path d="M13.983 11.078h2.119a.186.186 0 00.186-.185V9.006a.186.186 0 00-.186-.186h-2.119a.185.185 0 00-.185.185v1.888c0 .102.083.185.185.185m-2.954-5.43h2.118a.186.186 0 00.186-.186V3.574a.186.186 0 00-.186-.185h-2.118a.185.185 0 00-.185.185v1.888c0 .102.082.185.185.185m0 2.716h2.118a.187.187 0 00.186-.186V6.29a.186.186 0 00-.186-.185h-2.118a.185.185 0 00-.185.185v1.887c0 .102.082.185.185.186m-2.93 0h2.12a.186.186 0 00.184-.186V6.29a.185.185 0 00-.185-.185H8.1a.185.185 0 00-.185.185v1.887c0 .102.083.185.185.186m-2.964 0h2.119a.186.186 0 00.185-.186V6.29a.185.185 0 00-.185-.185H5.136a.186.186 0 00-.186.185v1.887c0 .102.084.185.186.186m5.893 2.715h2.118a.186.186 0 00.186-.185V9.006a.186.186 0 00-.186-.186h-2.118a.185.185 0 00-.185.185v1.888c0 .102.082.185.185.185m-2.93 0h2.12a.185.185 0 00.184-.185V9.006a.185.185 0 00-.184-.186h-2.12a.185.185 0 00-.184.185v1.888c0 .102.083.185.185.185m-2.964 0h2.119a.185.185 0 00.185-.185V9.006a.185.185 0 00-.184-.186h-2.12a.186.186 0 00-.186.186v1.887c0 .102.084.185.186.185m-2.92 0h2.12a.185.185 0 00.184-.185V9.006a.185.185 0 00-.184-.186h-2.12a.185.185 0 00-.184.185v1.888c0 .102.082.185.185.185M23.763 9.89c-.065-.051-.672-.51-1.954-.51-.338.001-.676.03-1.01.087-.248-1.7-1.653-2.53-1.716-2.566l-.344-.199-.226.327c-.284.438-.49.922-.612 1.43-.23.97-.09 1.882.403 2.661-.595.332-1.55.413-1.744.42H.751a.751.751 0 00-.75.748 11.376 11.376 0 00.692 4.062c.545 1.428 1.355 2.48 2.41 3.124 1.18.723 3.1 1.137 5.275 1.137.983.003 1.963-.086 2.93-.266a12.248 12.248 0 003.823-1.389c.98-.567 1.86-1.288 2.61-2.136 1.252-1.418 1.998-2.997 2.553-4.4h.221c1.372 0 2.215-.549 2.68-1.009.309-.293.55-.65.707-1.046l.098-.288Z" fill="#2496ED"/></g><text x="1257.4" y="964.0" font-family="Georgia, serif" font-size="22" font-weight="700" fill="#e8e6e0" dominant-baseline="middle">Docker</text><rect x="910.0" y="932.0" width="240" height="64" rx="14" fill="#1b2030" stroke="#2a3142" stroke-width="1.5"/><g transform="translate(932.00,949.28) scale(1.2267)"><path d="M10.984 13.836a.5.5 0 0 1-.353-.146l-.745-.743a.5.5 0 1 1 .706-.708l.392.391 1.181-1.18a.5.5 0 0 1 .708.707l-1.535 1.533a.504.504 0 0 1-.354.146zm9.353-.147l1.534-1.532a.5.5 0 0 0-.707-.707l-1.181 1.18-.392-.391a.5.5 0 1 0-.706.708l.746.743a.497.497 0 0 0 .706-.001zM4.527 7.452l2.557-1.585A1 1 0 0 0 7.09 4.17L4.533 2.56A1 1 0 0 0 3 3.406v3.196a1.001 1.001 0 0 0 1.527.85zm2.03-2.436L4 6.602V3.406l2.557 1.61zM24 12.5c0 1.93-1.57 3.5-3.5 3.5a3.503 3.503 0 0 1-3.46-3h-2.08a3.503 3.503 0 0 1-3.46 3 3.502 3.502 0 0 1-3.46-3h-.558c-.972 0-1.85-.399-2.482-1.042V17c0 1.654 1.346 3 3 3h.04c.244-1.693 1.7-3 3.46-3 1.93 0 3.5 1.57 3.5 3.5S13.43 24 11.5 24a3.502 3.502 0 0 1-3.46-3H8c-2.206 0-4-1.794-4-4V9.899A5.008 5.008 0 0 1 0 5c0-2.757 2.243-5 5-5s5 2.243 5 5a5.005 5.005 0 0 1-4.952 4.998A2.482 2.482 0 0 0 7.482 12h.558c.244-1.693 1.7-3 3.46-3a3.502 3.502 0 0 1 3.46 3h2.08a3.503 3.503 0 0 1 3.46-3c1.93 0 3.5 1.57 3.5 3.5zm-15 8c0 1.378 1.122 2.5 2.5 2.5s2.5-1.122 2.5-2.5-1.122-2.5-2.5-2.5S9 19.122 9 20.5zM5 9c2.206 0 4-1.794 4-4S7.206 1 5 1 1 2.794 1 5s1.794 4 4 4zm9 3.5c0-1.378-1.122-2.5-2.5-2.5S9 11.122 9 12.5s1.122 2.5 2.5 2.5 2.5-1.122 2.5-2.5zm9 0c0-1.378-1.122-2.5-2.5-2.5S18 11.122 18 12.5s1.122 2.5 2.5 2.5 2.5-1.122 2.5-2.5zm-13 8a.5.5 0 1 0 1 0 .5.5 0 0 0-1 0zm2 0a.5.5 0 1 0 1 0 .5.5 0 0 0-1 0zm12 0c0 1.93-1.57 3.5-3.5 3.5a3.503 3.503 0 0 1-3.46-3.002c-.007.001-.013.005-.021.005l-.506.017h-.017a.5.5 0 0 1-.016-.999l.506-.017c.018-.002.035.006.052.007A3.503 3.503 0 0 1 20.5 17c1.93 0 3.5 1.57 3.5 3.5zm-1 0c0-1.378-1.122-2.5-2.5-2.5S18 19.122 18 20.5s1.122 2.5 2.5 2.5 2.5-1.122 2.5-2.5z" fill="#2088FF"/></g><text x="977.4" y="964.0" font-family="Georgia, serif" font-size="22" font-weight="700" fill="#e8e6e0" dominant-baseline="middle">GitHub Actions</text></svg>
